<svg class="svg" xmlns="http://www.w3.org/2000/svg" viewbox="0 0 1000 950">
	<rect y="-5%" height="110%" width="100%" fill="#222" />
	<svg height="100%" width="100%">
		<path fill="#0ff" d="M 95.2 16.2 c 0 0 -11 13.6 -10.4 14.4 c 0.8 -0.8 -4 -14.6 -4 -14.6 s -1 -2.8 -4 -12.4 H 65.4 H 38.2 H 17.8 l -2 8.8 h 15.4 h 3.6 c 10 0 16 4.2 14.4 11.4 c -1.8 8 -10.4 11.4 -19.8 11.4 H 26 l 4.4 -19.4 H 15 l -6.6 28.2 h 22 c 16.4 0 32.2 -8.8 35 -20.2 c 0.4 -2 0.4 -7.4 -0.8 -10.4 c 0 0 0 -0.2 -0.2 -0.4 c 0 0 -0.2 -0.6 0.2 -0.6 c 0.2 0 0.4 0.2 0.4 0.2 c 0 0 0.2 0.4 0.2 0.6 l 14 40.2 l 35.6 -41 l 15 0 h 3.6 c 10 0 16 4.2 14.4 11.4 c -1.8 8 -10.6 11.4 -19.8 11.4 h -3.6 L 128.8 16 h -15.4 l -6.6 28.2 h 22 c 16.4 0 32.2 -8.8 34.8 -20.2 c 2.6 -11.4 -8.8 -20.2 -25.6 -20.2 h -14.6 h -18.2 C 96.8 14.2 95.2 16.2 95.2 16.2 L 95.2 16.2 z M 79.6 53.8 C 37.8 53.8 4 58.8 4 64.8 c 0 6 33.8 11 75.6 11 c 41.8 0 75.6 -4.8 75.6 -11 C 155.2 58.8 121.4 53.8 79.6 53.8 z M 76.8 68.6 c -9.6 0 -17.2 -1.6 -17.2 -3.6 c 0 -2 7.6 -3.6 17.2 -3.6 c 9.6 0 17.2 1.6 17.2 3.6 C 94 67 86.4 68.6 76.8 68.6 z" />
		<animate attributeName="x" dur="9.1" values="83%;0%;83%" repeatCount="indefinite" />
		<animate attributeName="y" dur="11.9" values="-3%;95%;-3%" repeatCount="indefinite" />
	</svg>
</svg>